<svg width="25" height="17" viewBox="0 0 25 17" fill="none" xmlns="http://www.w3.org/2000/svg">
<path d="M0 0.944403C0 0.693932 0.101292 0.453719 0.281593 0.276609C0.461893 0.0994995 0.706433 0 0.961417 0H22.1126C22.3676 0 22.6121 0.0994995 22.7924 0.276609C22.9727 0.453719 23.074 0.693932 23.074 0.944403C23.074 1.19487 22.9727 1.43509 22.7924 1.6122C22.6121 1.78931 22.3676 1.88881 22.1126 1.88881H0.961417C0.706433 1.88881 0.461893 1.78931 0.281593 1.6122C0.101292 1.43509 0 1.19487 0 0.944403ZM0.961417 9.44403H9.61417C9.86915 9.44403 10.1137 9.34453 10.294 9.16742C10.4743 8.99031 10.5756 8.7501 10.5756 8.49963C10.5756 8.24916 10.4743 8.00895 10.294 7.83184C10.1137 7.65473 9.86915 7.55523 9.61417 7.55523H0.961417C0.706433 7.55523 0.461893 7.65473 0.281593 7.83184C0.101292 8.00895 0 8.24916 0 8.49963C0 8.7501 0.101292 8.99031 0.281593 9.16742C0.461893 9.34453 0.706433 9.44403 0.961417 9.44403ZM11.537 15.1105H0.961417C0.706433 15.1105 0.461893 15.21 0.281593 15.3871C0.101292 15.5642 0 15.8044 0 16.0549C0 16.3053 0.101292 16.5455 0.281593 16.7226C0.461893 16.8998 0.706433 16.9993 0.961417 16.9993H11.537C11.792 16.9993 12.0365 16.8998 12.2168 16.7226C12.3971 16.5455 12.4984 16.3053 12.4984 16.0549C12.4984 15.8044 12.3971 15.5642 12.2168 15.3871C12.0365 15.21 11.792 15.1105 11.537 15.1105ZM24.7156 16.723C24.6263 16.8108 24.5203 16.8805 24.4036 16.928C24.2869 16.9755 24.1618 17 24.0354 17C23.9091 17 23.784 16.9755 23.6672 16.928C23.5505 16.8805 23.4445 16.8108 23.3552 16.723L20.9108 14.3266C19.9167 14.9708 18.7146 15.2297 17.5374 15.0529C16.3601 14.8762 15.2915 14.2765 14.5387 13.3701C13.7859 12.4636 13.4024 11.3149 13.4626 10.1465C13.5228 8.97818 14.0223 7.87336 14.8644 7.04615C15.7065 6.21894 16.8313 5.72824 18.0207 5.66914C19.2101 5.61003 20.3795 5.98672 21.3023 6.72622C22.2251 7.46571 22.8356 8.51537 23.0155 9.67179C23.1954 10.8282 22.9319 12.0091 22.276 12.9855L24.7156 15.382C24.8057 15.4698 24.8773 15.5742 24.9261 15.6893C24.9749 15.8044 25 15.9278 25 16.0525C25 16.1772 24.9749 16.3006 24.9261 16.4157C24.8773 16.5308 24.8057 16.6352 24.7156 16.723ZM18.2669 13.2216C18.8374 13.2216 19.395 13.0555 19.8693 12.7442C20.3436 12.4328 20.7133 11.9904 20.9316 11.4727C21.1499 10.955 21.207 10.3853 21.0957 9.8357C20.9845 9.28611 20.7098 8.78128 20.3064 8.38505C19.903 7.98882 19.3891 7.71898 18.8296 7.60966C18.2701 7.50034 17.6902 7.55645 17.1632 7.77089C16.6361 7.98533 16.1857 8.34847 15.8687 8.81439C15.5518 9.28031 15.3827 9.82808 15.3827 10.3884C15.3827 11.1398 15.6865 11.8605 16.2274 12.3918C16.7683 12.9231 17.502 13.2216 18.2669 13.2216Z" fill="black"/>
</svg>
