<svg xmlns:mydata="http://www.w3.org/2000/svg" mydata:contrastcolor="ffffff" mydata:template="Contrast" mydata:presentation="2.5" mydata:layouttype="undefined" mydata:specialfontid="undefined" mydata:id1="220" mydata:id2="219" mydata:companyname="Health Hub" mydata:companytagline="" version="1.1" xmlns="http://www.w3.org/2000/svg" xmlns:xlink="http://www.w3.org/1999/xlink" viewBox="0 35 550 400"><g fill="#475fb0" fill-rule="nonzero" stroke="none" stroke-width="1" stroke-linecap="butt" stroke-linejoin="miter" stroke-miterlimit="10" stroke-dasharray="" stroke-dashoffset="0" font-family="none" font-weight="none" font-size="none" text-anchor="none" style="mix-blend-mode: normal"><g data-paper-data="{&quot;isGlobalGroup&quot;:true,&quot;bounds&quot;:{&quot;x&quot;:72.35921824847482,&quot;y&quot;:186.71254505090616,&quot;width&quot;:405.2815635030504,&quot;height&quot;:96.57490989818763}}"><g data-paper-data="{&quot;stacked&quot;:true,&quot;isPrimaryText&quot;:true}"><path d="M258.3451,186.95602v41.99862h-13.20826v-17.65159h-10.59096v17.65159h-13.20826v-41.99862h13.20826v15.09516h10.59096v-15.09516z" data-paper-data="{&quot;glyphName&quot;:&quot;H&quot;,&quot;glyphIndex&quot;:0,&quot;firstGlyphOfWord&quot;:true,&quot;word&quot;:1,&quot;line&quot;:1,&quot;firstGlyphOfFirstLine&quot;:true}" fill="#475fb0"></path><path d="M301.87555,219.09409l0.60868,9.31274c-4.05784,0.52752 -11.34166,0.79128 -21.85146,0.79128c-2.88106,0 -5.24475,-0.88258 -7.09107,-2.64774c-1.84632,-1.76516 -2.76947,-4.06798 -2.76947,-6.90847v-23.37314c0,-2.84049 0.92316,-5.14331 2.76947,-6.90847c1.84632,-1.76516 4.21001,-2.64774 7.09107,-2.64774c10.5098,0 17.79362,0.26376 21.85146,0.79128l-0.60868,9.31274h-15.39949c-0.77099,0 -1.37966,0.20289 -1.82603,0.60868c-0.44636,0.40578 -0.66954,0.9333 -0.66954,1.58256v4.07813h15.70383v8.76493h-15.70383v5.05201c0,0.64925 0.22318,1.17677 0.66954,1.58256c0.44636,0.40578 1.05504,0.60868 1.82603,0.60868z" data-paper-data="{&quot;glyphName&quot;:&quot;E&quot;,&quot;glyphIndex&quot;:1,&quot;word&quot;:1,&quot;line&quot;:1}" fill="#475fb0"></path><path d="M337.06715,219.88537h-11.50397l-2.13036,9.06927h-13.45173l10.89529,-38.59003c0.28405,-1.01446 0.83186,-1.83617 1.64342,-2.46514c0.81157,-0.62896 1.74487,-0.94345 2.79991,-0.94345h11.99091c1.05504,0 1.98834,0.31448 2.79991,0.94345c0.81157,0.62896 1.35938,1.45068 1.64342,2.46514l10.89529,38.59003h-13.45173zM334.93678,210.6335l-2.0695,-9.0084c-0.36521,-1.90718 -0.60868,-3.51003 -0.73041,-4.80854h-1.64342c-0.24347,1.90718 -0.48694,3.51003 -0.73041,4.80854l-2.0695,9.0084z" data-paper-data="{&quot;glyphName&quot;:&quot;A&quot;,&quot;glyphIndex&quot;:2,&quot;word&quot;:1,&quot;line&quot;:1}" fill="#475fb0"></path><path d="M374.69344,186.95602v29.33817c0,0.64925 0.23333,1.17677 0.69998,1.58256c0.46665,0.40578 1.08547,0.60868 1.85646,0.60868h14.12127l0.60868,9.86055c-4.17957,0.5681 -11.01703,0.85215 -20.51237,0.85215c-3.0028,0 -5.41721,-0.88258 -7.24324,-2.64774c-1.82603,-1.76516 -2.73904,-4.06798 -2.73904,-6.90847v-32.68588z" data-paper-data="{&quot;glyphName&quot;:&quot;L&quot;,&quot;glyphIndex&quot;:3,&quot;word&quot;:1,&quot;line&quot;:1}" fill="#475fb0"></path><path d="M430.45828,196.81656h-11.74744v32.13807h-13.20826v-32.13807h-11.74744v-9.86055h36.70314z" data-paper-data="{&quot;glyphName&quot;:&quot;T&quot;,&quot;glyphIndex&quot;:4,&quot;word&quot;:1,&quot;line&quot;:1}" fill="#475fb0"></path><path d="M477.64078,186.95602v41.99862h-13.20826v-17.65159h-10.59096v17.65159h-13.20826v-41.99862h13.20826v15.09516h10.59096v-15.09516z" data-paper-data="{&quot;glyphName&quot;:&quot;H&quot;,&quot;glyphIndex&quot;:5,&quot;lastGlyphOfWord&quot;:true,&quot;word&quot;:1,&quot;line&quot;:1,&quot;lastGlyphOfFirstLine&quot;:true}" fill="#475fb0"></path><path d="M258.3451,240.43669v41.99862h-13.20826v-17.65159h-10.59096v17.65159h-13.20826v-41.99862h13.20826v15.09516h10.59096v-15.09516z" data-paper-data="{&quot;glyphName&quot;:&quot;H&quot;,&quot;glyphIndex&quot;:6,&quot;firstGlyphOfWord&quot;:true,&quot;word&quot;:2,&quot;line&quot;:2,&quot;firstGlyphOfSecondLine&quot;:true}" fill="#475fb0"></path><path d="M307.96231,240.43669v24.65136c0,6.69543 -1.33909,11.40252 -4.01726,14.12127c-2.67817,2.71875 -7.30411,4.07813 -13.8778,4.07813c-7.10122,0 -12.09236,-1.35938 -14.97342,-4.07813c-2.88106,-2.71875 -4.3216,-7.42584 -4.3216,-14.12127v-24.65136h13.20826v24.65136c0,3.36801 0.36521,5.60996 1.09562,6.72587c0.73041,1.11591 2.17094,1.67386 4.3216,1.67386c2.11008,0 3.53032,-0.55795 4.26073,-1.67386c0.73041,-1.11591 1.09562,-3.35786 1.09562,-6.72587v-24.65136z" data-paper-data="{&quot;glyphName&quot;:&quot;U&quot;,&quot;glyphIndex&quot;:7,&quot;word&quot;:2,&quot;line&quot;:2}" fill="#475fb0"></path><path d="M346.62335,260.46212v0.36521c3.24627,0.28405 5.56938,1.33909 6.96934,3.16511c1.39995,1.82603 2.09993,4.48391 2.09993,7.97365c0,4.17957 -1.16663,7.05049 -3.49988,8.61276c-2.33326,1.56227 -6.23893,2.3434 -11.71701,2.3434c-8.88666,0 -15.60239,-0.16231 -20.14716,-0.48694v-41.99862c4.13899,-0.32463 10.18517,-0.48694 18.13853,-0.48694c5.96502,0 10.09387,0.76084 12.38655,2.28253c2.29268,1.52169 3.43902,4.4129 3.43902,8.67363c0,3.04338 -0.59853,5.33606 -1.79559,6.87803c-1.19706,1.54198 -3.15497,2.4347 -5.87372,2.67817zM333.23249,256.81007h4.6868c1.54198,0 2.55644,-0.26376 3.04338,-0.79128c0.48694,-0.52752 0.73041,-1.60285 0.73041,-3.22598c0,-1.62314 -0.25361,-2.67817 -0.76084,-3.16511c-0.50723,-0.48694 -1.55212,-0.73041 -3.13468,-0.73041h-4.56507zM333.23249,273.97472h4.86941c1.82603,0 3.02309,-0.30434 3.59119,-0.91301c0.5681,-0.60868 0.85215,-1.86661 0.85215,-3.77379c0,-1.94776 -0.28405,-3.22598 -0.85215,-3.83466c-0.5681,-0.60868 -1.78545,-0.91301 -3.65205,-0.91301h-4.80854z" data-paper-data="{&quot;glyphName&quot;:&quot;B&quot;,&quot;glyphIndex&quot;:8,&quot;lastGlyphOfWord&quot;:true,&quot;word&quot;:2,&quot;line&quot;:2,&quot;lastGlyphOfSecondLine&quot;:true}" fill="#475fb0"></path></g><g data-paper-data="{&quot;fillRule&quot;:&quot;nonzero&quot;,&quot;fillRuleOriginal&quot;:&quot;nonzero&quot;,&quot;isIcon&quot;:true,&quot;iconStyle&quot;:&quot;standalone&quot;,&quot;selectedEffects&quot;:{&quot;container&quot;:&quot;&quot;,&quot;transformation&quot;:&quot;&quot;,&quot;pattern&quot;:&quot;&quot;},&quot;bounds&quot;:{&quot;x&quot;:72.35921824847482,&quot;y&quot;:186.71254505090616,&quot;width&quot;:99.30080929754142,&quot;height&quot;:96.57490989818763},&quot;iconType&quot;:&quot;initial&quot;,&quot;initialText&quot;:&quot;HH&quot;,&quot;rawInitialId&quot;:1087,&quot;monogramSpecial&quot;:&quot;emblem&quot;,&quot;suitableAsStandaloneIcon&quot;:true}"><path d="M119.08901,283.28745v-96.57491c-2.90047,0.10743 -5.80094,0.4297 -8.59398,1.07425v39.74718l-28.46757,16.436c-0.75198,-2.90047 -1.07425,-5.90837 -1.07425,-8.91626c0,-11.38703 4.83412,-21.69981 12.46128,-28.89728l-6.12322,-6.12322c-9.13111,8.80883 -14.93205,21.27011 -14.93205,35.02049c0,15.03948 6.98261,28.575 17.83252,37.49126l6.12322,-6.12322c-4.83412,-3.75986 -8.70141,-8.59398 -11.38703,-14.18008l25.5671,-14.82462v44.79614c2.79304,0.64455 5.69352,0.96682 8.59398,1.07425zM124.93023,186.71255v96.57491c3.00789,-0.10743 5.80094,-0.4297 8.59398,-1.07425v-28.68242l29.54182,-16.97312c-0.4297,12.139 -6.33806,22.88148 -15.36175,29.8641l6.12322,6.12322c10.84991,-8.91626 17.83252,-22.45179 17.83252,-37.49126c0,-13.8578 -5.80094,-26.31908 -15.03948,-35.12791l-6.12322,6.12322c5.90837,5.47867 10.09794,12.78355 11.81673,20.94784l-28.78985,16.65084v-55.8609c-2.79304,-0.64455 -5.58609,-0.96682 -8.59398,-1.07425z" data-paper-data="{&quot;isPathIcon&quot;:true}" fill="#475fb0"></path></g><path d="M191.53106,283.28745v-96.57491h2.33003v96.57491z" data-paper-data="{&quot;isShapeTextSeparator&quot;:true}" fill="#475fb0"></path></g></g></svg>