<svg width="22" height="22" viewBox="0 0 22 22" fill="none" xmlns="http://www.w3.org/2000/svg">
<path d="M19.0397 13.5385C19.0397 13.7895 18.9652 14.0349 18.8258 14.2436C18.6863 14.4523 18.4881 14.615 18.2561 14.7111C18.0242 14.8071 17.769 14.8323 17.5227 14.7833C17.2765 14.7343 17.0504 14.6134 16.8728 14.4359C16.6953 14.2584 16.5744 14.0323 16.5255 13.7861C16.4765 13.5399 16.5016 13.2847 16.5977 13.0527C16.6938 12.8208 16.8564 12.6226 17.0652 12.4831C17.2739 12.3437 17.5193 12.2692 17.7704 12.2692C18.107 12.2692 18.4299 12.403 18.6679 12.641C18.906 12.879 19.0397 13.2018 19.0397 13.5385ZM18.5584 17.6941C18.3725 18.8923 17.7646 19.9847 16.8443 20.7742C15.924 21.5637 14.7519 21.9984 13.5393 22H11.0007C9.65457 21.9986 8.36396 21.4633 7.4121 20.5115C6.46023 19.5597 5.92486 18.2691 5.92346 16.9231V12.6384C4.28766 12.4323 2.78331 11.6364 1.6927 10.4C0.60209 9.16358 0.000206903 7.5717 0 5.92308V1.69231C0 1.24348 0.178308 0.813035 0.495697 0.495665C0.813087 0.178296 1.24356 0 1.69242 0H3.38483C3.60926 0 3.8245 0.0891481 3.98319 0.247833C4.14189 0.406517 4.23104 0.62174 4.23104 0.846154C4.23104 1.07057 4.14189 1.28579 3.98319 1.44447C3.8245 1.60316 3.60926 1.69231 3.38483 1.69231H1.69242V5.92308C1.69236 6.59552 1.82589 7.26128 2.08527 7.8817C2.34465 8.50211 2.7247 9.06482 3.20336 9.53715C3.68202 10.0095 4.24975 10.382 4.87359 10.6331C5.49742 10.8843 6.16493 11.009 6.83736 11C9.59918 10.964 11.8469 8.64663 11.8469 5.83529V1.69231H10.1545C9.93007 1.69231 9.71484 1.60316 9.55614 1.44447C9.39745 1.28579 9.30829 1.07057 9.30829 0.846154C9.30829 0.62174 9.39745 0.406517 9.55614 0.247833C9.71484 0.0891481 9.93007 0 10.1545 0H11.8469C12.2958 0 12.7262 0.178296 13.0436 0.495665C13.361 0.813035 13.5393 1.24348 13.5393 1.69231V5.83529C13.5393 9.30875 10.9446 12.2121 7.61588 12.6373V16.9231C7.61588 17.8207 7.97249 18.6816 8.60727 19.3164C9.24205 19.9511 10.103 20.3077 11.0007 20.3077H13.5393C14.308 20.3064 15.0534 20.0441 15.6534 19.5636C16.2534 19.0832 16.6724 18.4132 16.8417 17.6635C15.8197 17.4339 14.9192 16.8335 14.3144 15.9783C13.7096 15.1232 13.4436 14.0741 13.5677 13.0341C13.6919 11.9941 14.1974 11.0372 14.9864 10.3484C15.7755 9.65959 16.792 9.28794 17.8393 9.30537C18.8866 9.32279 19.8902 9.72803 20.6559 10.4427C21.4217 11.1573 21.8951 12.1306 21.9845 13.1741C22.074 14.2177 21.7732 15.2573 21.1403 16.0919C20.5074 16.9264 19.5874 17.4966 18.5584 17.692V17.6941ZM20.309 13.5385C20.309 13.0364 20.1601 12.5456 19.8812 12.1282C19.6022 11.7107 19.2057 11.3854 18.7419 11.1932C18.278 11.0011 17.7676 10.9508 17.2751 11.0488C16.7827 11.1467 16.3303 11.3885 15.9753 11.7435C15.6203 12.0985 15.3785 12.5508 15.2805 13.0432C15.1826 13.5356 15.2328 14.046 15.425 14.5099C15.6171 14.9737 15.9425 15.3702 16.36 15.6491C16.7775 15.928 17.2683 16.0769 17.7704 16.0769C18.4437 16.0769 19.0894 15.8095 19.5655 15.3334C20.0415 14.8574 20.309 14.2117 20.309 13.5385Z" fill="black"/>
</svg>
