<svg width="33" height="32" viewBox="0 0 33 32" fill="none" xmlns="http://www.w3.org/2000/svg">
<path d="M28.4082 16C28.4082 16.2652 28.3025 16.5196 28.1144 16.7071C27.9264 16.8946 27.6712 17 27.4052 17H17.3758V27C17.3758 27.2652 17.2701 27.5196 17.082 27.7071C16.8939 27.8946 16.6388 28 16.3728 28C16.1068 28 15.8517 27.8946 15.6636 27.7071C15.4755 27.5196 15.3699 27.2652 15.3699 27V17H5.34035C5.07435 17 4.81925 16.8946 4.63116 16.7071C4.44307 16.5196 4.3374 16.2652 4.3374 16C4.3374 15.7348 4.44307 15.4804 4.63116 15.2929C4.81925 15.1054 5.07435 15 5.34035 15H15.3699V5C15.3699 4.73478 15.4755 4.48043 15.6636 4.29289C15.8517 4.10536 16.1068 4 16.3728 4C16.6388 4 16.8939 4.10536 17.082 4.29289C17.2701 4.48043 17.3758 4.73478 17.3758 5V15H27.4052C27.6712 15 27.9264 15.1054 28.1144 15.2929C28.3025 15.4804 28.4082 15.7348 28.4082 16Z" fill="black"/>
</svg>
