<svg width="23" height="22" viewBox="0 0 23 22" fill="none" xmlns="http://www.w3.org/2000/svg">
<path d="M20.5957 0H1.87229C1.42086 0 0.987918 0.210714 0.668708 0.585786C0.349497 0.960859 0.170166 1.46957 0.170166 2V20C0.170166 20.5304 0.349497 21.0391 0.668708 21.4142C0.987918 21.7893 1.42086 22 1.87229 22H20.5957C21.0471 22 21.4801 21.7893 21.7993 21.4142C22.1185 21.0391 22.2978 20.5304 22.2978 20V2C22.2978 1.46957 22.1185 0.960859 21.7993 0.585786C21.4801 0.210714 21.0471 0 20.5957 0ZM20.5957 20H1.87229V2H20.5957V20ZM17.1914 7C17.1914 7.26522 17.1018 7.51957 16.9422 7.70711C16.7826 7.89464 16.5661 8 16.3404 8H6.12761C5.9019 8 5.68543 7.89464 5.52582 7.70711C5.36621 7.51957 5.27655 7.26522 5.27655 7C5.27655 6.73478 5.36621 6.48043 5.52582 6.29289C5.68543 6.10536 5.9019 6 6.12761 6H16.3404C16.5661 6 16.7826 6.10536 16.9422 6.29289C17.1018 6.48043 17.1914 6.73478 17.1914 7ZM17.1914 11C17.1914 11.2652 17.1018 11.5196 16.9422 11.7071C16.7826 11.8946 16.5661 12 16.3404 12H6.12761C5.9019 12 5.68543 11.8946 5.52582 11.7071C5.36621 11.5196 5.27655 11.2652 5.27655 11C5.27655 10.7348 5.36621 10.4804 5.52582 10.2929C5.68543 10.1054 5.9019 10 6.12761 10H16.3404C16.5661 10 16.7826 10.1054 16.9422 10.2929C17.1018 10.4804 17.1914 10.7348 17.1914 11ZM17.1914 15C17.1914 15.2652 17.1018 15.5196 16.9422 15.7071C16.7826 15.8946 16.5661 16 16.3404 16H6.12761C5.9019 16 5.68543 15.8946 5.52582 15.7071C5.36621 15.5196 5.27655 15.2652 5.27655 15C5.27655 14.7348 5.36621 14.4804 5.52582 14.2929C5.68543 14.1054 5.9019 14 6.12761 14H16.3404C16.5661 14 16.7826 14.1054 16.9422 14.2929C17.1018 14.4804 17.1914 14.7348 17.1914 15Z" fill="black"/>
</svg>
