<svg width="23" height="28" viewBox="0 0 23 28" fill="none" xmlns="http://www.w3.org/2000/svg">
<path d="M20.0198 2.12982H15.4873C14.9254 1.50073 14.237 0.997395 13.4671 0.652771C12.6972 0.308148 11.8633 0.130005 11.0198 0.130005C10.1763 0.130005 9.34231 0.308148 8.57244 0.652771C7.80257 0.997395 7.11416 1.50073 6.55228 2.12982H2.01978C1.48934 2.12982 0.980634 2.34054 0.605562 2.71561C0.230489 3.09068 0.0197754 3.59939 0.0197754 4.12982V25.1298C0.0197754 25.6603 0.230489 26.169 0.605562 26.544C0.980634 26.9191 1.48934 27.1298 2.01978 27.1298H20.0198C20.5502 27.1298 21.0589 26.9191 21.434 26.544C21.8091 26.169 22.0198 25.6603 22.0198 25.1298V4.12982C22.0198 3.59939 21.8091 3.09068 21.434 2.71561C21.0589 2.34054 20.5502 2.12982 20.0198 2.12982ZM11.0198 2.12982C12.0806 2.12982 13.0981 2.55125 13.8482 3.3014C14.5983 4.05154 15.0198 5.06896 15.0198 6.12982H7.01978C7.01978 5.06896 7.4412 4.05154 8.19135 3.3014C8.94149 2.55125 9.95891 2.12982 11.0198 2.12982ZM20.0198 25.1298H2.01978V4.12982H5.36353C5.13605 4.77209 5.0198 5.44846 5.01978 6.12982V7.12982C5.01978 7.39504 5.12513 7.64939 5.31267 7.83693C5.50021 8.02447 5.75456 8.12982 6.01978 8.12982H16.0198C16.285 8.12982 16.5393 8.02447 16.7269 7.83693C16.9144 7.64939 17.0198 7.39504 17.0198 7.12982V6.12982C17.0198 5.44846 16.9035 4.77209 16.676 4.12982H20.0198V25.1298Z" fill="black"/>
</svg>
