<svg width="25" height="25" viewBox="0 0 25 25" fill="none" xmlns="http://www.w3.org/2000/svg">
<path d="M10.9375 21.0938C10.9375 21.301 10.8552 21.4997 10.7087 21.6462C10.5622 21.7927 10.3635 21.875 10.1562 21.875H4.6875C4.2731 21.875 3.87567 21.7104 3.58265 21.4174C3.28962 21.1243 3.125 20.7269 3.125 20.3125V4.6875C3.125 4.2731 3.28962 3.87567 3.58265 3.58265C3.87567 3.28962 4.2731 3.125 4.6875 3.125H10.1562C10.3635 3.125 10.5622 3.20731 10.7087 3.35382C10.8552 3.50034 10.9375 3.69905 10.9375 3.90625C10.9375 4.11345 10.8552 4.31216 10.7087 4.45868C10.5622 4.60519 10.3635 4.6875 10.1562 4.6875H4.6875V20.3125H10.1562C10.3635 20.3125 10.5622 20.3948 10.7087 20.5413C10.8552 20.6878 10.9375 20.8865 10.9375 21.0938ZM21.6465 11.9473L17.7402 8.04102C17.5936 7.89442 17.3948 7.81207 17.1875 7.81207C16.9802 7.81207 16.7814 7.89442 16.6348 8.04102C16.4882 8.18761 16.4058 8.38643 16.4058 8.59375C16.4058 8.80107 16.4882 8.99989 16.6348 9.14648L19.208 11.7188H10.1562C9.94905 11.7188 9.75034 11.8011 9.60382 11.9476C9.45731 12.0941 9.375 12.2928 9.375 12.5C9.375 12.7072 9.45731 12.9059 9.60382 13.0524C9.75034 13.1989 9.94905 13.2812 10.1562 13.2812H19.208L16.6348 15.8535C16.4882 16.0001 16.4058 16.1989 16.4058 16.4062C16.4058 16.6136 16.4882 16.8124 16.6348 16.959C16.7814 17.1056 16.9802 17.1879 17.1875 17.1879C17.3948 17.1879 17.5936 17.1056 17.7402 16.959L21.6465 13.0527C21.7191 12.9802 21.7767 12.894 21.8161 12.7992C21.8554 12.7043 21.8756 12.6027 21.8756 12.5C21.8756 12.3973 21.8554 12.2957 21.8161 12.2008C21.7767 12.106 21.7191 12.0198 21.6465 11.9473Z" fill="black"/>
</svg>
